<?xml version="1.0" encoding="UTF-8" standalone="no"?>
<!-- Created with Inkscape (http://www.inkscape.org/) -->

<svg
   version="1.1"
   id="svg1"
   width="313"
   height="313"
   viewBox="0 0 313 313"
   xmlns="http://www.w3.org/2000/svg"
   xmlns:svg="http://www.w3.org/2000/svg">
  <defs
     id="defs1" />
  <g
     id="g1">
    <rect
       style="fill:#ffffff;fill-opacity:1;stroke-width:0.87822"
       id="rect4"
       width="318.04214"
       height="318.81784"
       x="-3.1028495"
       y="-3.1028504" />
    <path
       style="display:inline;fill:#2563eb;fill-opacity:1"
       d="M 150.46358,83.408042 45.412694,188.45893 c 0,0 -3.748086,4.20867 0,8.11147 3.748087,3.9028 32.938906,32.93891 32.938906,32.93891 0,0 4.964773,4.64963 9.20695,0 4.242178,-4.64964 61.0002,-61.0002 61.0002,-61.0002 0,0 5.2505,-5.68684 11.65013,0 6.39962,5.68683 62.9975,62.9975 62.9975,62.9975 0,0 3.9077,2.76837 7.39841,0 3.4907,-2.76838 33.91563,-33.91564 33.91563,-33.91564 0,0 2.71744,-3.56588 0,-8.12319 -2.71745,-4.55731 -106.1284,-106.128392 -106.1284,-106.128392 0,0 -3.85635,-2.748598 -7.92844,0.06865 z"
       id="path2" />
    <path
       style="display:inline;fill:#ffffff;fill-opacity:1"
       d="m 88.41321,202.43506 64.02159,-64.02159 c 0,0 2.99967,-2.7597 5.19372,0 2.19404,2.7597 63.97873,63.97873 63.97873,63.97873 0,0 7.32491,5.89453 12.70641,0 5.38151,-5.89452 0.14545,-12.68201 0.14545,-12.68201 l -73.15939,-73.15938 c 0,0 -5.86632,-4.31491 -11.53872,0 -5.6724,4.3149 -74.056307,74.0563 -74.056307,74.0563 0,0 -4.290659,6.42387 0,11.466 4.29066,5.04213 12.708517,0.36195 12.708517,0.36195 z"
       id="path3" />
    <path
       style="fill:#2563eb;fill-opacity:1"
       d="m 112.33287,236.59232 h 23.27137 l 15.97483,-15.97483 c 0,0 3.07861,-2.20593 5.79361,0 2.71499,2.20593 15.91422,15.91423 15.91422,15.91423 h 24.32586 c 0,0 2.13321,-1.8302 0,-4.06038 -2.13321,-2.23017 -41.06428,-41.06428 -41.06428,-41.06428 0,0 -1.64839,-1.55142 -3.29678,0 -1.64839,1.55143 -40.99155,40.99156 -40.99155,40.99156 0,0 -2.20594,1.72111 0.0727,4.1937 z"
       id="path4" />
  </g>
</svg>
